<svg width="38" height="35" viewBox="0 0 38 35" fill="none" xmlns="http://www.w3.org/2000/svg">
<path d="M13.8167 14.55C13.5713 14.3362 13.3745 14.0724 13.2394 13.7764C13.1043 13.4803 13.034 13.1588 13.0333 12.8333V5.04584C13.0333 4.97953 13.0597 4.91594 13.1066 4.86906C13.1534 4.82218 13.217 4.79584 13.2833 4.79584H24.2792C24.3459 4.79583 24.4099 4.82203 24.4574 4.8688C24.505 4.91557 24.5322 4.97915 24.5333 5.04584V6.7125H25.1083C25.4468 6.71196 25.7821 6.77816 26.095 6.90732C26.4079 7.03648 26.6923 7.22606 26.9318 7.46523C27.1714 7.70439 27.3614 7.98845 27.4911 8.30113C27.6208 8.61382 27.6875 8.949 27.6875 9.2875V9.55C27.6064 10.2013 27.2877 10.7997 26.7925 11.2303C26.2972 11.6609 25.6604 11.8935 25.0042 11.8833H24.5417V12.85C24.5376 13.1729 24.4653 13.4912 24.3296 13.7842C24.1939 14.0771 23.9978 14.3381 23.7542 14.55H25.8375C25.9138 14.55 25.9869 14.5803 26.0408 14.6342C26.0947 14.6881 26.125 14.7613 26.125 14.8375C26.125 15.1944 25.9832 15.5368 25.7308 15.7892C25.4784 16.0415 25.1361 16.1833 24.7792 16.1833H12.8208C12.4642 16.1867 12.1208 16.0488 11.8655 15.7997C11.6102 15.5507 11.4638 15.2108 11.4583 14.8542C11.4549 14.7775 11.4819 14.7025 11.5334 14.6456C11.5848 14.5887 11.6567 14.5543 11.7333 14.55H13.8167ZM13.8167 14.55H23.7458M25.1083 10.2833H24.5333V8.30417H25.1083C25.3344 8.35311 25.5369 8.47799 25.6822 8.65803C25.8274 8.83808 25.9066 9.06243 25.9066 9.29375C25.9066 9.52508 25.8274 9.74943 25.6822 9.92947C25.5369 10.1095 25.3344 10.2344 25.1083 10.2833Z" stroke="#A2785E" stroke-width="0.6" stroke-linecap="round" stroke-linejoin="round"/>
<path d="M2.72 20.244C2.72 20.108 2.736 20.016 2.768 19.968C2.808 19.912 2.876 19.884 2.972 19.884C3.076 19.884 3.252 19.992 3.5 20.208C3.748 20.424 3.88 20.616 3.896 20.784C3.928 21.072 4.08 21.584 4.352 22.32C4.624 23.048 4.936 23.788 5.288 24.54C5.736 24.012 6.3 23.312 6.98 22.44C7.66 21.56 8.164 20.936 8.492 20.568C8.82 20.2 9.056 20.016 9.2 20.016C9.344 20.016 9.496 20.096 9.656 20.256C9.816 20.416 9.896 20.568 9.896 20.712C9.896 20.856 9.88 21.02 9.848 21.204C9.816 21.388 9.76 21.632 9.68 21.936C9.608 22.232 9.54 22.492 9.476 22.716C9.42 22.932 9.324 23.272 9.188 23.736C9.052 24.2 8.948 24.572 8.876 24.852C8.804 25.124 8.72 25.46 8.624 25.86C8.528 26.252 8.448 26.576 8.384 26.832C8.328 27.08 8.268 27.324 8.204 27.564C8.084 28.028 7.968 28.26 7.856 28.26C7.752 28.26 7.648 28.164 7.544 27.972C7.44 27.78 7.388 27.524 7.388 27.204C7.388 26.876 7.524 26.132 7.796 24.972C8.076 23.812 8.376 22.796 8.696 21.924C7.224 23.764 6.316 24.864 5.972 25.224C5.636 25.584 5.356 25.764 5.132 25.764C4.916 25.764 4.712 25.64 4.52 25.392C4.232 24.976 3.844 23.992 3.356 22.44C3.22 23.28 3.068 24 2.9 24.6C2.74 25.192 2.632 25.588 2.576 25.788C2.528 25.98 2.484 26.14 2.444 26.268C2.412 26.396 2.372 26.548 2.324 26.724C2.276 26.892 2.232 27.032 2.192 27.144C2.16 27.256 2.124 27.38 2.084 27.516C2.044 27.644 2.008 27.748 1.976 27.828C1.952 27.908 1.924 27.984 1.892 28.056C1.828 28.192 1.78 28.26 1.748 28.26C1.652 28.26 1.532 28.156 1.388 27.948C1.244 27.74 1.172 27.54 1.172 27.348C1.172 27.156 1.428 26.052 1.94 24.036C2.46 22.02 2.72 20.756 2.72 20.244ZM14.5888 22.704C14.6208 22.576 14.6528 22.488 14.6848 22.44C14.7168 22.392 14.7848 22.368 14.8888 22.368C15.0008 22.368 15.1328 22.472 15.2848 22.68C15.4448 22.888 15.5248 23.088 15.5248 23.28C15.5248 23.384 15.3488 24 14.9968 25.128C14.6448 26.256 14.3728 27.152 14.1808 27.816C14.0848 28.152 13.9488 28.32 13.7728 28.32C13.6688 28.32 13.5808 28.276 13.5088 28.188C13.4368 28.1 13.4008 27.94 13.4008 27.708C13.4008 27.476 13.4928 27.056 13.6768 26.448C13.3408 26.992 12.9768 27.44 12.5848 27.792C12.1928 28.144 11.8328 28.32 11.5048 28.32C11.1848 28.32 10.8808 28.168 10.5928 27.864C10.3048 27.56 10.1608 27.248 10.1608 26.928C10.1608 26.168 10.3808 25.22 10.8208 24.084C11.2688 22.94 11.6408 22.368 11.9368 22.368C12.0808 22.368 12.2048 22.436 12.3088 22.572C12.4208 22.7 12.4768 22.848 12.4768 23.016C12.4768 23.088 12.3688 23.348 12.1528 23.796C11.9368 24.236 11.7208 24.756 11.5048 25.356C11.2888 25.948 11.1808 26.468 11.1808 26.916C11.1808 27.044 11.2208 27.152 11.3008 27.24C11.3808 27.32 11.4768 27.36 11.5888 27.36C11.8928 27.36 12.2528 27.092 12.6688 26.556C13.0928 26.02 13.4768 25.396 13.8208 24.684C14.1648 23.972 14.4208 23.312 14.5888 22.704ZM18.4821 20.016C18.4821 21.52 18.1701 23.472 17.5461 25.872C17.1461 27.504 16.8661 28.32 16.7061 28.32C16.5941 28.32 16.4621 28.232 16.3101 28.056C16.1661 27.88 16.0941 27.744 16.0941 27.648C16.0941 27.552 16.2101 27.056 16.4421 26.16C16.6741 25.264 16.9061 24.164 17.1381 22.86C17.3701 21.548 17.4861 20.368 17.4861 19.32C17.4861 19.208 17.5021 19.128 17.5341 19.08C17.5661 19.032 17.6341 19.008 17.7381 19.008C17.8421 19.008 17.9901 19.124 18.1821 19.356C18.3821 19.58 18.4821 19.8 18.4821 20.016ZM21.4235 20.016C21.4235 21.52 21.1115 23.472 20.4875 25.872C20.0875 27.504 19.8075 28.32 19.6475 28.32C19.5355 28.32 19.4035 28.232 19.2515 28.056C19.1075 27.88 19.0355 27.744 19.0355 27.648C19.0355 27.552 19.1515 27.056 19.3835 26.16C19.6155 25.264 19.8475 24.164 20.0795 22.86C20.3115 21.548 20.4275 20.368 20.4275 19.32C20.4275 19.208 20.4435 19.128 20.4755 19.08C20.5075 19.032 20.5755 19.008 20.6795 19.008C20.7835 19.008 20.9315 19.124 21.1235 19.356C21.3235 19.58 21.4235 19.8 21.4235 20.016ZM25.1929 22.368C25.5529 22.368 25.8849 22.552 26.1889 22.92C26.4929 23.28 26.6449 23.608 26.6449 23.904C26.6449 24.192 26.5449 24.488 26.3449 24.792C26.4409 24.912 26.4889 25.016 26.4889 25.104C26.4889 25.328 26.4369 25.712 26.3329 26.256C26.2369 26.8 26.1769 27.156 26.1529 27.324C26.1369 27.492 26.1209 27.628 26.1049 27.732C26.0889 27.828 26.0689 27.924 26.0449 28.02C26.0129 28.22 25.9409 28.32 25.8289 28.32C25.6849 28.32 25.5649 28.196 25.4689 27.948C25.3809 27.692 25.3289 27.364 25.3129 26.964C24.6009 27.868 23.9409 28.32 23.3329 28.32C22.9649 28.32 22.6009 28.164 22.2409 27.852C21.8889 27.532 21.7129 27.204 21.7129 26.868C21.7129 26.388 21.8889 25.796 22.2409 25.092C22.5929 24.38 23.0489 23.748 23.6089 23.196C24.1689 22.644 24.6969 22.368 25.1929 22.368ZM25.7449 24.48C25.7449 23.736 25.5969 23.364 25.3009 23.364C24.9889 23.364 24.6249 23.588 24.2089 24.036C23.7929 24.476 23.4409 24.976 23.1529 25.536C22.8649 26.096 22.7209 26.54 22.7209 26.868C22.7209 27.004 22.7769 27.116 22.8889 27.204C23.0009 27.284 23.1329 27.324 23.2849 27.324C23.6609 27.324 24.0849 27.072 24.5569 26.568C25.0289 26.056 25.3569 25.436 25.5409 24.708C25.5649 24.588 25.6329 24.516 25.7449 24.492V24.48ZM28.9699 27.12C28.9699 27.272 29.0579 27.348 29.2339 27.348C29.5379 27.348 29.9059 27.264 30.3379 27.096C30.7779 26.92 31.0219 26.832 31.0699 26.832C31.2139 26.832 31.2859 26.908 31.2859 27.06C31.2859 27.292 31.0459 27.56 30.5659 27.864C30.0939 28.168 29.6619 28.32 29.2699 28.32C28.8859 28.32 28.5659 28.216 28.3099 28.008C28.0539 27.792 27.9259 27.572 27.9259 27.348C27.9259 27.124 27.9739 26.84 28.0699 26.496C28.1659 26.144 28.3019 25.684 28.4779 25.116C28.6619 24.54 28.8059 24.064 28.9099 23.688C28.5339 23.776 28.2819 23.82 28.1539 23.82C28.0259 23.82 27.8979 23.756 27.7699 23.628C27.6499 23.492 27.5899 23.364 27.5899 23.244C27.5899 23.052 28.1099 22.868 29.1499 22.692C29.2939 22.028 29.3659 21.44 29.3659 20.928C29.3659 20.688 29.4459 20.568 29.6059 20.568C29.7419 20.568 29.9099 20.656 30.1099 20.832C30.3099 21 30.4099 21.192 30.4099 21.408C30.4099 21.624 30.3419 22.004 30.2059 22.548C30.6619 22.508 31.0259 22.488 31.2979 22.488C31.7779 22.488 32.0179 22.592 32.0179 22.8C32.0179 22.92 31.8859 23.02 31.6219 23.1C31.3659 23.18 30.8219 23.304 29.9899 23.472C29.8219 24.104 29.6099 24.828 29.3539 25.644C29.0979 26.452 28.9699 26.944 28.9699 27.12ZM37.0545 24.36C37.0545 24.784 36.8225 25.132 36.3585 25.404C35.9025 25.668 35.3825 25.8 34.7985 25.8C34.2225 25.8 33.6985 25.736 33.2265 25.608C33.1145 25.96 33.0585 26.276 33.0585 26.556C33.0585 26.828 33.1425 27.04 33.3105 27.192C33.4865 27.344 33.7705 27.42 34.1625 27.42C34.5625 27.42 34.9705 27.352 35.3865 27.216C35.8105 27.072 36.0425 27 36.0825 27C36.2905 27 36.3945 27.08 36.3945 27.24C36.3945 27.456 36.1505 27.692 35.6625 27.948C35.1745 28.196 34.6985 28.32 34.2345 28.32C33.6105 28.32 33.1025 28.136 32.7105 27.768C32.3185 27.392 32.1225 26.92 32.1225 26.352C32.1225 25.784 32.2745 25.192 32.5785 24.576C32.8825 23.952 33.2745 23.428 33.7545 23.004C34.2345 22.58 34.7105 22.368 35.1825 22.368C35.6545 22.368 36.0825 22.592 36.4665 23.04C36.8585 23.488 37.0545 23.928 37.0545 24.36ZM35.2425 23.316C34.9465 23.316 34.6385 23.472 34.3185 23.784C33.9985 24.088 33.7265 24.468 33.5025 24.924C33.8225 24.996 34.1865 25.032 34.5945 25.032C35.0025 25.032 35.3585 24.968 35.6625 24.84C35.9665 24.704 36.1185 24.528 36.1185 24.312C36.1185 24.096 36.0185 23.876 35.8185 23.652C35.6265 23.428 35.4345 23.316 35.2425 23.316Z" fill="#A2785E"/>
</svg>
