<svg width="20" height="21" viewBox="0 0 20 21" fill="none" xmlns="http://www.w3.org/2000/svg">
<path d="M4.81667 14.55C4.5713 14.3362 4.37448 14.0724 4.23938 13.7764C4.10428 13.4803 4.03403 13.1588 4.03333 12.8333V5.04584C4.03333 4.97953 4.05967 4.91594 4.10656 4.86906C4.15344 4.82218 4.21703 4.79584 4.28333 4.79584H15.2792C15.3459 4.79583 15.4099 4.82203 15.4574 4.8688C15.505 4.91557 15.5322 4.97915 15.5333 5.04584V6.7125H16.1083C16.4468 6.71196 16.7821 6.77816 17.095 6.90732C17.4079 7.03648 17.6923 7.22606 17.9318 7.46523C18.1714 7.70439 18.3614 7.98845 18.4911 8.30113C18.6208 8.61382 18.6875 8.949 18.6875 9.2875V9.55C18.6064 10.2013 18.2877 10.7997 17.7925 11.2303C17.2972 11.6609 16.6604 11.8935 16.0042 11.8833H15.5417V12.85C15.5376 13.1729 15.4653 13.4912 15.3296 13.7842C15.1939 14.0771 14.9978 14.3381 14.7542 14.55H16.8375C16.9138 14.55 16.9869 14.5803 17.0408 14.6342C17.0947 14.6881 17.125 14.7613 17.125 14.8375C17.125 15.1944 16.9832 15.5368 16.7308 15.7892C16.4784 16.0415 16.1361 16.1833 15.7792 16.1833H3.82083C3.46421 16.1867 3.12076 16.0488 2.86547 15.7997C2.61019 15.5507 2.46382 15.2108 2.45833 14.8542C2.45492 14.7775 2.48188 14.7025 2.53336 14.6456C2.58484 14.5887 2.65669 14.5543 2.73333 14.55H4.81667ZM4.81667 14.55H14.7458M16.1083 10.2833H15.5333V8.30417H16.1083C16.3344 8.35311 16.5369 8.47799 16.6822 8.65803C16.8274 8.83808 16.9066 9.06243 16.9066 9.29375C16.9066 9.52508 16.8274 9.74943 16.6822 9.92947C16.5369 10.1095 16.3344 10.2344 16.1083 10.2833Z" stroke="#A2785E" stroke-width="0.6" stroke-linecap="round" stroke-linejoin="round"/>
</svg>
